<svg xmlns="http://www.w3.org/2000/svg" width="408" height="408" fill="none" viewBox="0 0 408 408"><g filter="url(#filter0_d)"><circle cx="204" cy="200" r="200" fill="url(#paint0_linear)"/></g><path fill="#fff" d="M204.121 252.241C232.859 252.241 256.241 228.859 256.241 200.119C256.241 171.379 232.859 148 204.121 148C175.382 148 152 171.38 152 200.121C152 228.861 175.382 252.241 204.121 252.241V252.241ZM204.121 180.641C214.863 180.641 223.6 189.38 223.6 200.121C223.6 210.863 214.863 219.602 204.121 219.602C193.378 219.602 184.641 210.863 184.641 200.121C184.641 189.379 193.378 180.641 204.121 180.641V180.641Z"/><defs><filter id="filter0_d" width="408" height="408" x="0" y="0" color-interpolation-filters="sRGB" filterUnits="userSpaceOnUse"><feFlood flood-opacity="0" result="BackgroundImageFix"/><feColorMatrix in="SourceAlpha" type="matrix" values="0 0 0 0 0 0 0 0 0 0 0 0 0 0 0 0 0 0 127 0"/><feOffset dy="4"/><feGaussianBlur stdDeviation="2"/><feColorMatrix type="matrix" values="0 0 0 0 0 0 0 0 0 0 0 0 0 0 0 0 0 0 0.25 0"/><feBlend in2="BackgroundImageFix" mode="normal" result="effect1_dropShadow"/><feBlend in="SourceGraphic" in2="effect1_dropShadow" mode="normal" result="shape"/></filter><linearGradient id="paint0_linear" x1="-90.5" x2="367.5" y1="384.5" y2="107.5" gradientUnits="userSpaceOnUse"><stop stop-color="#4C35DA"/><stop offset="1" stop-color="#B04AEF"/></linearGradient></defs></svg>